<?xml version="1.0" standalone="no"?><svg xmlns="http://www.w3.org/2000/svg" viewBox="0 0 1440 320"><path fill="#000101" fill-opacity="1" d="M0,224L40,229.3C80,235,160,245,240,250.7C320,256,400,256,480,256C560,256,640,256,720,240C800,224,880,192,960,197.3C1040,203,1120,245,1200,240C1280,235,1360,181,1400,154.7L1440,128L1440,320L1400,320C1360,320,1280,320,1200,320C1120,320,1040,320,960,320C880,320,800,320,720,320C640,320,560,320,480,320C400,320,320,320,240,320C160,320,80,320,40,320L0,320Z"></path></svg>